<svg id="d1459eee-2456-4a6d-a4fa-cfe08e49f42f" data-name="Capa 1" xmlns="http://www.w3.org/2000/svg" viewBox="0 0 411.01 535.81"><defs><style>.dfda4cb8-b881-417d-8adc-1659e33189f4{fill:#6191a4;}</style></defs><title>adv1</title><path class="dfda4cb8-b881-417d-8adc-1659e33189f4" d="M441,373.93c-11.93-13.16-26.32-19.58-44.68-19.58H357.59l-25.4-24.48C313.53,345.17,290.89,354,266.4,354A101.72,101.72,0,0,1,204,332.32L181.34,354H141.07c-20.5,0-36.41,7-49,21.42C55.7,417.69,61.82,508,64.57,535.81H472.17C474.31,507.65,478,415.24,441,373.93Z" transform="translate(-62.4)"/><path class="dfda4cb8-b881-417d-8adc-1659e33189f4" d="M160.34,182.38a35.25,35.25,0,0,0-12.24,27.23c0,16.83,11,30.6,25.09,33,3.06,25.4,13.46,47.74,29.07,64.26a100.36,100.36,0,0,0,10.4,9.49,92.63,92.63,0,0,0,14.69,9.49,81.87,81.87,0,0,0,76.5,0,92.58,92.58,0,0,0,14.69-9.49,100.37,100.37,0,0,0,10.4-9.49,111.41,111.41,0,0,0,28.76-64h.92c16.22,0,29.07-15,29.07-33.35a35.25,35.25,0,0,0-12.24-27.23Z" transform="translate(-62.4)"/><path class="dfda4cb8-b881-417d-8adc-1659e33189f4" d="M377.41,118.12C367.92,86.6,342.83,54.47,311,37.94v82.93a25.61,25.61,0,0,1-2.45,9.49,24.05,24.05,0,0,1-21.11,13.16H248.89A24,24,0,0,1,225.33,123a12.55,12.55,0,0,1-.31-3.37v-82c-31.82,16.83-56.92,49-66.4,80.48l-2.14,6.73H139V163.1H396.77V124.85H379.55Z" transform="translate(-62.4)"/><path class="dfda4cb8-b881-417d-8adc-1659e33189f4" d="M248.78,134H287a14.09,14.09,0,0,0,12.55-7.65,13.1,13.1,0,0,0,1.84-6.73V19a23.87,23.87,0,0,0-1.22-6.73A19.35,19.35,0,0,0,282.44,0H248.78A14,14,0,0,0,234.7,12.55c0,.61-.31,1.22-.31,1.84V119.65a15.39,15.39,0,0,0,2.45,8.26A14.92,14.92,0,0,0,248.78,134Z" transform="translate(-62.4)"/></svg>