<svg id="2c95bcb3-ff21-4b96-ac7f-cb7c6b04ad00" data-name="Capa 1" xmlns="http://www.w3.org/2000/svg" viewBox="0 0 498.34 612"><defs><style>.\33 c76c3b3-c9a0-41c3-9370-01bd0c30193a{fill:#6191a4;}</style></defs><title>adv2</title><path class="3c76c3b3-c9a0-41c3-9370-01bd0c30193a" d="M310.63,43.71H297.17a13,13,0,0,1-13-13v-.44A30.25,30.25,0,0,0,253.89,0h-.7a30.25,30.25,0,0,0-30.25,30.25v.44a13,13,0,0,1-13,13H196.45a26,26,0,0,0-26,26v.53a26,26,0,0,0,26,26H310.64a26,26,0,0,0,26-26v-.53A26,26,0,0,0,310.63,43.71Zm-57.09,0A13.11,13.11,0,1,1,266.66,30.6,13.11,13.11,0,0,1,253.54,43.71ZM311.93,550.8H91.8a35,35,0,0,1-35-35V96.17c0-19.31,15.66-35,26.23-35h70.85a45.12,45.12,0,0,0-.91,9,43.5,43.5,0,0,0,43.45,43.45H310.63a43.84,43.84,0,0,0,42.6-52.46h53.31c28.06,0,43.71,15.66,43.71,35V358.9c-2.91-.18-5.79-.44-8.74-.44a139.19,139.19,0,0,0-35,4.6V157.37h-306V507.09H302.07A138.85,138.85,0,0,0,311.93,550.8ZM441.52,384.69A113.66,113.66,0,1,0,555.17,498.34,113.66,113.66,0,0,0,441.52,384.69ZM515.78,475l-69.94,78.69a17.49,17.49,0,0,1-24,2l-43.71-35A17.48,17.48,0,0,1,400,493.43L430.73,518l58.92-66.28A17.49,17.49,0,0,1,515.78,475Zm-153-169H222.94a8.74,8.74,0,0,1-8.74-8.74v-8.74a8.74,8.74,0,0,1,8.74-8.74H362.83a8.74,8.74,0,0,1,8.74,8.74v8.74A8.75,8.75,0,0,1,362.83,306Zm0-78.69H222.94a8.74,8.74,0,0,1-8.74-8.74v-8.74a8.74,8.74,0,0,1,8.74-8.74H362.83a8.74,8.74,0,0,1,8.74,8.74v8.74A8.75,8.75,0,0,1,362.83,227.31ZM319.11,375.94H222.94a8.74,8.74,0,0,1-8.74-8.74v-8.74a8.74,8.74,0,0,1,8.74-8.74h96.17a8.74,8.74,0,0,1,8.74,8.74v8.74A8.74,8.74,0,0,1,319.11,375.94Zm-17.49,78.69H222.94a8.74,8.74,0,0,1-8.74-8.74v-8.74a8.74,8.74,0,0,1,8.74-8.74h78.69a8.74,8.74,0,0,1,8.74,8.74v8.74A8.74,8.74,0,0,1,301.63,454.63ZM197.46,195l-32.2,36.22a8,8,0,0,1-11,.94L134.09,216a8,8,0,0,1,10.06-12.57L158.3,214.8l27.12-30.51a8.05,8.05,0,0,1,12,10.7Zm0,77.79L165.26,309a8,8,0,0,1-11,.93l-20.12-16.1a8,8,0,0,1,10.06-12.57l14.15,11.32,27.12-30.51a8.05,8.05,0,0,1,12,10.7Zm0,74.39-32.2,36.22a8,8,0,0,1-11,.93l-20.12-16.1a8,8,0,0,1,10.06-12.57L158.3,367l27.12-30.51a8.05,8.05,0,0,1,12,10.7Zm0,74.91-32.2,36.22a8,8,0,0,1-11,.93l-20.12-16.1a8,8,0,0,1,10.06-12.57l14.15,11.32,27.12-30.51a8.05,8.05,0,0,1,12,10.7Z" transform="translate(-56.83)"/></svg>