<svg id="8e881d3f-d667-4143-99bd-54b33e6fb41a" data-name="Capa 1" xmlns="http://www.w3.org/2000/svg" viewBox="0 0 61.97 56.09"><defs><style>.\33 f022521-a43f-41db-9410-a858a8561def{fill:#6191a4;}</style></defs><title>adv3</title><circle class="3f022521-a43f-41db-9410-a858a8561def" cx="13.2" cy="7.45" r="5.43"/><path class="3f022521-a43f-41db-9410-a858a8561def" d="M32.37,32.57a3.55,3.55,0,0,0-.34-.48,6.53,6.53,0,0,0-.28-.62q-3-5.81-6.24-11.48c4.25-1.35,8.13-.12,11.18,4.16,2.48,3.48,8.29.14,5.78-3.38-5.91-8.27-14.72-10.33-23.54-5.09a3.53,3.53,0,0,0-.9.75,6.61,6.61,0,0,0-1.91,1.16,2.49,2.49,0,0,0-1.26.84c-2.59,3.31-5.06,7.09-3.2,11.33a5,5,0,0,0,.32.6,10.62,10.62,0,0,0,8.16,3.42c.47,0,.95,0,1.45,0h.73A2.58,2.58,0,0,0,24.9,31a2.43,2.43,0,0,0-2.49-2.59H21.32a14.69,14.69,0,0,1-2.69-.2l-.43-.12L17.65,28h-.09a.85.85,0,0,1-.42-.35V26.58c0-.07.06-.15.08-.22l1.25.47.1,0,.32.09a13.56,13.56,0,0,0,2.43.18H22.4A3.78,3.78,0,0,1,26.24,31a3.91,3.91,0,0,1-3.89,4.11h-1.5l.8,1.54a41.77,41.77,0,0,0-8.45,5.75,2.88,2.88,0,0,0-.25,4.29,3.26,3.26,0,0,0,1.32,1.42l10.36,6.22C28.34,56.6,31.7,50.81,28,48.6l-6.7-4a30.37,30.37,0,0,1,6.92-3.5,3.61,3.61,0,0,0,1-.57l10,16.91c2.19,3.72,8,.35,5.78-3.38Z" transform="translate(0 -2.94)"/><rect class="3f022521-a43f-41db-9410-a858a8561def" width="4.92" height="55.86"/><rect class="3f022521-a43f-41db-9410-a858a8561def" x="49.25" y="18.34" width="12.71" height="0.67"/><rect class="3f022521-a43f-41db-9410-a858a8561def" x="42.9" y="28.52" width="12.71" height="0.67"/><rect class="3f022521-a43f-41db-9410-a858a8561def" x="44.24" y="37.81" width="12.71" height="0.67"/></svg>