<svg id="6a1f2897-d0a2-486e-a1c7-0ff5d2772f59" data-name="Capa 1" xmlns="http://www.w3.org/2000/svg" viewBox="0 0 490.67 384"><defs><style>.\36 f0593f8-ce67-436d-a1d3-2b4c3a869d20{fill:#6191a4;}</style></defs><title>adv4</title><path class="6f0593f8-ce67-436d-a1d3-2b4c3a869d20" d="M117.33,245.33h-64A10.67,10.67,0,0,0,42.67,256V384A10.67,10.67,0,1,0,64,384V330.67H96a10.67,10.67,0,1,0,0-21.33H64V266.67h53.33a10.67,10.67,0,1,0,0-21.33Z" transform="translate(0 -53.33)"/><path class="6f0593f8-ce67-436d-a1d3-2b4c3a869d20" d="M234.67,288A42.71,42.71,0,0,0,192,245.33H160A10.67,10.67,0,0,0,149.33,256V384a10.67,10.67,0,0,0,21.33,0V345.75l45.78,45.8a10.72,10.72,0,0,0,7.55,3.11,10.56,10.56,0,0,0,7.53-3.14,10.67,10.67,0,0,0,0-15.08l-45.78-45.78H192A42.71,42.71,0,0,0,234.67,288Zm-64,21.33V266.67H192a21.33,21.33,0,0,1,0,42.67Z" transform="translate(0 -53.33)"/><path class="6f0593f8-ce67-436d-a1d3-2b4c3a869d20" d="M330.67,266.67a10.67,10.67,0,1,0,0-21.33h-64A10.67,10.67,0,0,0,256,256V384a10.67,10.67,0,0,0,10.67,10.67h64a10.67,10.67,0,1,0,0-21.33H277.33V330.67h32a10.67,10.67,0,0,0,0-21.33h-32V266.67Z" transform="translate(0 -53.33)"/><path class="6f0593f8-ce67-436d-a1d3-2b4c3a869d20" d="M437.33,266.67a10.67,10.67,0,0,0,0-21.33h-64A10.67,10.67,0,0,0,362.67,256V384a10.67,10.67,0,0,0,10.67,10.67h64a10.67,10.67,0,0,0,0-21.33H384V330.67h32a10.67,10.67,0,0,0,0-21.33H384V266.67Z" transform="translate(0 -53.33)"/><path class="6f0593f8-ce67-436d-a1d3-2b4c3a869d20" d="M437.33,202.67H399.06L298.45,102.06a53.32,53.32,0,0,0-106.24,0L91.58,202.67H53.33A53.39,53.39,0,0,0,0,256V384a53.39,53.39,0,0,0,53.33,53.33h384A53.39,53.39,0,0,0,490.67,384V256A53.39,53.39,0,0,0,437.33,202.67Zm-192-128a32,32,0,0,1,32,31.94s0,.09,0,.14a32,32,0,1,1-32-32.08ZM196.45,128a53.31,53.31,0,0,0,97.76,0l74.69,74.69H121.75ZM469.33,384a32,32,0,0,1-32,32h-384a32,32,0,0,1-32-32V256a32,32,0,0,1,32-32h384a32,32,0,0,1,32,32Z" transform="translate(0 -53.33)"/></svg>