<svg id="f5527904-3534-48ca-860b-7db5d5f28e00" data-name="Capa 1" xmlns="http://www.w3.org/2000/svg" viewBox="0 0 204.05 195.19"><title>condition-1</title><path d="M178,46H130.29V32.7a28.27,28.27,0,1,0-56.54,0V46H26L0,199.62H204.05ZM84.16,32.7a17.86,17.86,0,1,1,35.72,0V43.46H84.16ZM31.42,53.06H172.64l23.63,139.51H7.78Z" transform="translate(0 -4.43)"/><path d="M100.56,93.79H92.27L76.44,113.22c-1.31,1.69-2.68,3.52-4.06,5.53h-.24v-25H65.45v51.75h6.69V125.82l5-5.69,17,25.41H102L81.81,115.76Z" transform="translate(0 -4.43)"/><path d="M132.37,114h-.15c-1.7-3.06-5.15-6.36-11.6-6.36-8.59,0-16.81,7.06-16.81,19.65,0,10.29,6.61,18.12,15.83,18.12,5.76,0,9.82-2.76,11.82-6.22h.15v4.08c0,9.44-5.07,13-12,13a20.27,20.27,0,0,1-10.92-3L107,158.54c3,2,7.9,3.06,12.36,3.06,4.69,0,9.91-1.15,13.6-4.45,3.53-3.31,5.3-8.44,5.3-17.05V118.52c0-4.46.07-7.53.29-10.14h-6Zm-.85,15.75a11.75,11.75,0,0,1-.53,3.62,9.77,9.77,0,0,1-9.37,6.91c-7.23,0-11-6.07-11-13.36,0-8.61,4.61-14.06,11-14.06,5,0,8.22,3.22,9.46,7.23a8.8,8.8,0,0,1,.38,3v6.67h0Z" transform="translate(0 -4.43)"/></svg>