<svg id="ab2adfa7-0db1-4fef-bc35-b99c88cc2e8c" data-name="Capa 1" xmlns="http://www.w3.org/2000/svg" viewBox="0 0 353.62 323.35"><title>condition-4</title><path d="M98.54,161c-3.9,8.59.39,21,11.79,34.06l33.44,38.35c9.05,10.39,21.17,16.09,34.11,16.09s25-5.7,34.09-16.09l33.45-38.35c11.59-13.31,16-25.85,12.12-34.4-1.55-3.41-5.83-9.12-17.14-9.12h-17.2a7.9,7.9,0,0,1-7.9-7.9V66.19a51.12,51.12,0,0,0-51.06-51.06H66.44c-15.35,0-26,4.75-29.85,13.41-3.49,7.77-.83,17.23,7.49,26.57C59.92,72.93,74.83,87.67,97,87.67h37.78a7.9,7.9,0,0,1,7.9,7.9v48.06a7.9,7.9,0,0,1-7.9,7.9H116.47C104.61,151.54,100.15,157.47,98.54,161ZM148.3,76.51H97C79.44,76.51,67,64,52.43,47.68c-5.14-5.78-7.21-11.1-5.63-14.55,1.88-4.24,9.42-6.84,19.65-6.84h97.77a39.94,39.94,0,0,1,39.88,39.9v90.94a5.57,5.57,0,0,0,5.58,5.57h30.7c2.17,0,6,.35,7,2.59,1.09,2.4.32,10.15-10.37,22.43l-33.44,38.34c-6.9,7.93-16,12.28-25.68,12.28s-18.79-4.38-25.68-12.28l-33.45-38.34c-10.44-12-11.12-19.69-10-22.1s5.36-2.92,7.76-2.92h31.83a5.58,5.58,0,0,0,5.59-5.57v-75A5.58,5.58,0,0,0,148.3,76.51Z" transform="translate(0 -15.13)"/><path d="M333.14,222.62H253.33a5.67,5.67,0,0,0-4.18,1.88l-46.24,52.18A31,31,0,0,1,158.7,279l-60-54.9a5.61,5.61,0,0,0-3.78-1.47H20.48A20.48,20.48,0,0,0,0,243.08v37.5c0,31.92,29.22,57.91,65.14,57.91H288.48c35.92,0,65.15-26,65.15-57.91v-37.5A20.49,20.49,0,0,0,333.14,222.62ZM288.48,327.34H65.14c-29.77,0-54-21-54-46.76v-37.5a9.32,9.32,0,0,1,9.31-9.29H84.85a23.47,23.47,0,0,1,13.73,5.33l52.58,48.11a42.15,42.15,0,0,0,60.09-3.16l39.36-44.38a20,20,0,0,1,13.14-5.91h69.39a9.3,9.3,0,0,1,9.31,9.29v37.5C342.45,306.33,318.24,327.34,288.48,327.34Z" transform="translate(0 -15.13)"/></svg>