<svg id="a3e3098d-2da6-412d-b80d-b6dff50eadb2" data-name="Capa 1" xmlns="http://www.w3.org/2000/svg" viewBox="0 0 49.55 50.77"><title>condition-2</title><path d="M49.06,0H21.56a1.11,1.11,0,0,0-1.11,1.11V7.86l-1.83,2.89c-8.89,1-16.24,7.34-16.24,14.51A12,12,0,0,0,2.7,28,3.66,3.66,0,0,0,.61,30.86v1.39c0,1.4,1.46,2.49,3.33,2.49H39.16c1.87,0,3.33-1.1,3.33-2.5V30.86c0-1.42-1.37-2.66-3-3.34a11.06,11.06,0,0,0,.24-2.26c0-7.22-6.34-13.05-15-14.37L22.66,7.78V2.22H49.05a1.11,1.11,0,0,0,0-2.22ZM40.27,30.86l0,1.3a1.51,1.51,0,0,1-1.13.36H3.94a2.27,2.27,0,0,1-1.11-.27V30.86c0-.65,1.09-1.21,2.15-1.49H38.12C39.18,29.64,40.27,30.21,40.27,30.86Zm-2.42-5.6a8.88,8.88,0,0,1-.09,1.3,1,1,0,0,1-.21.45,5.87,5.87,0,0,0-.6,0H6.16a6.22,6.22,0,0,0-1.47.19,1,1,0,0,1-.34-.6,10.24,10.24,0,0,1-.08-1.3c0-6.81,7.84-12.78,16.77-12.78C30.46,12.48,37.85,18.09,37.85,25.26Z" transform="translate(-0.61)"/><path d="M9.45,37.51l-.4.42c-.34.35-2,2.16-2,3.34a2.4,2.4,0,0,0,4.81,0c0-1.18-1.67-3-2-3.34Zm0,5.06a1.3,1.3,0,0,1-1.3-1.29,5.34,5.34,0,0,1,1.3-2.13,5.34,5.34,0,0,1,1.29,2.13A1.3,1.3,0,0,1,9.45,42.57Z" transform="translate(-0.61)"/><path d="M19.9,37.51l-.4.42c-.33.35-2,2.16-2,3.34a2.4,2.4,0,0,0,4.81,0c0-1.18-1.67-3-2-3.34Zm0,5.06a1.3,1.3,0,0,1-1.3-1.29,5.34,5.34,0,0,1,1.3-2.13,5.34,5.34,0,0,1,1.29,2.13A1.29,1.29,0,0,1,19.9,42.57Z" transform="translate(-0.61)"/><path d="M14.72,44.61l-.4.42c-.34.35-2,2.16-2,3.34a2.4,2.4,0,0,0,4.81,0c0-1.18-1.67-3-2-3.34Zm0,5.05a1.3,1.3,0,0,1-1.29-1.29,5.34,5.34,0,0,1,1.29-2.13A5.34,5.34,0,0,1,16,48.37,1.3,1.3,0,0,1,14.72,49.66Z" transform="translate(-0.61)"/><path d="M25.17,44.61l-.4.42c-.33.35-2,2.16-2,3.34a2.4,2.4,0,0,0,4.81,0c0-1.18-1.67-3-2-3.34Zm0,5.05a1.3,1.3,0,0,1-1.29-1.29,5.34,5.34,0,0,1,1.29-2.13,5.35,5.35,0,0,1,1.3,2.13A1.3,1.3,0,0,1,25.17,49.66Z" transform="translate(-0.61)"/><path d="M30.35,37.51l-.4.42c-.33.35-2,2.16-2,3.34a2.4,2.4,0,1,0,4.81,0c0-1.18-1.67-3-2-3.34Zm0,5.06a1.3,1.3,0,0,1-1.3-1.29,5.35,5.35,0,0,1,1.3-2.13,5.35,5.35,0,0,1,1.3,2.13A1.3,1.3,0,0,1,30.35,42.57Z" transform="translate(-0.61)"/><path d="M18.48,15.48c-8.54,2.61-11,8.55-11.07,8.8a.55.55,0,0,0,.31.72.57.57,0,0,0,.2,0,.56.56,0,0,0,.52-.35c0-.06,2.36-5.71,10.37-8.15a.56.56,0,0,0-.33-1.06Z" transform="translate(-0.61)"/></svg>