<svg id="9c589b79-3df4-417e-aebf-db9f5cb1d214" data-name="Capa 1" xmlns="http://www.w3.org/2000/svg" viewBox="0 0 46.56 22.05"><defs><style>.\32 89e4242-3fe1-4d2f-831c-b2c579dc7feb{fill:#fff;}</style></defs><title>footer-ico-3</title><path class="289e4242-3fe1-4d2f-831c-b2c579dc7feb" d="M40.09,34.3h-26A2.07,2.07,0,0,1,12,31.74l3.53-17.13a3.08,3.08,0,0,1,2.89-2.36h26a2.07,2.07,0,0,1,2.09,2.56L43,31.95A3.08,3.08,0,0,1,40.09,34.3Zm-21.68-21a2.07,2.07,0,0,0-1.91,1.56L13,31.95a1.07,1.07,0,0,0,1.11,1.36h26A2.07,2.07,0,0,0,42,31.74h0l3.53-17.13a1.07,1.07,0,0,0-1.11-1.36Z" transform="translate(0 -12.26)"/><path class="289e4242-3fe1-4d2f-831c-b2c579dc7feb" d="M29,25.8a2.8,2.8,0,0,1-2-.84L17.06,14.54a.5.5,0,1,1,.72-.69l9.88,10.42a1.84,1.84,0,0,0,2.33.21L44.53,13.8a.5.5,0,0,1,.59.81L30.58,25.29A2.73,2.73,0,0,1,29,25.8Z" transform="translate(0 -12.26)"/><path class="289e4242-3fe1-4d2f-831c-b2c579dc7feb" d="M12.08,16H5.5a.5.5,0,1,1,0-1h6.58a.5.5,0,0,1,0,1Z" transform="translate(0 -12.26)"/><path class="289e4242-3fe1-4d2f-831c-b2c579dc7feb" d="M10.75,22.67H.5a.5.5,0,0,1,0-1H10.75a.5.5,0,0,1,0,1Z" transform="translate(0 -12.26)"/><path class="289e4242-3fe1-4d2f-831c-b2c579dc7feb" d="M9.08,28.67h-5a.5.5,0,0,1,0-1h5a.5.5,0,0,1,0,1Z" transform="translate(0 -12.26)"/></svg>