<svg id="7a5867e1-bdfa-4986-97dc-25b08b65a7f3" data-name="Capa 1" xmlns="http://www.w3.org/2000/svg" viewBox="0 0 199.29 199.29"><defs><style>.\36 b4fa008-6127-455a-bdfc-f8155d3a2eb6{fill:#6191a4;}</style></defs><title>glass-adv-4</title><path class="6b4fa008-6127-455a-bdfc-f8155d3a2eb6" d="M15.57,199.29a7.33,7.33,0,0,1-5.2-2.15l-8.22-8.22a7.36,7.36,0,0,1,0-10.4l13.19-13.19a2,2,0,0,1,2.8,0L90,93.42,56.44,59.84a2,2,0,0,1-.59-1.41V44.28a2,2,0,0,1,.59-1.41L98.72.59A2,2,0,0,1,100.13,0h14.14a2,2,0,0,1,1.41.59l81.63,81.63h0l1.37,1.37a2,2,0,0,1,.59,1.41V99.16a2,2,0,0,1-.59,1.41l-42.28,42.28a2,2,0,0,1-1.41.59H140.87a2,2,0,0,1-1.41-.59l-33.58-33.58L93.54,121.6l0,0L79.78,135.36l0,0L38.5,176.64l0,0L34,181.15a2,2,0,0,1,0,2.8L20.77,197.14h0A7.34,7.34,0,0,1,15.57,199.29Zm1.19-29.72L5,181.35a3.36,3.36,0,0,0,0,4.75l8.22,8.22a3.36,3.36,0,0,0,4.75,0l11.77-11.77ZM29,176.15l2.17,2.17,1.65-1.65Zm-4.68-4.68,12,1.65,10.21-10.21-17.92-2.46L21,168.13ZM32.2,156.9l17.92,2.46,10.21-10.21-17.92-2.46ZM46,143.15l17.92,2.46,10.21-10.21-17.92-2.46Zm97-3.71h11.25l41.11-41.11V87.08Zm-35.62-34.39,32.18,32.18,53.59-53.59L115.24,5.79,61.64,59.38,94.24,92l0,0,13,13ZM59.72,129.38l17.92,2.46,10.21-10.21-17.92-2.46Zm13.76-13.76,17.92,2.46,10.21-10.21-17.92-2.46Zm13.76-13.76,13,1.79-7.4-7.4ZM59.85,45.11v10.4L111.36,4H101Z"/></svg>