<svg id="47ad7f4c-8de2-4c05-a589-b30b8dfff34a" data-name="Capa 1" xmlns="http://www.w3.org/2000/svg" viewBox="0 0 55.23 157.57"><defs><style>.d9f37b57-509a-4546-89ff-2efef051b26e{fill:#6191a4;}</style></defs><title>glass-adv-2</title><g id="b81a001f-92d3-4264-8adb-b81cce6000cf" data-name="6"><path class="d9f37b57-509a-4546-89ff-2efef051b26e" d="M134,104.11V10.3a10.26,10.26,0,1,0-20.51,0v93.81a27.61,27.61,0,1,0,20.51,0Zm-10.26,51.12A25.39,25.39,0,0,1,115.1,106a1.17,1.17,0,0,0,.76-1.1V10.3a7.93,7.93,0,1,1,15.85,0v94.62a1.17,1.17,0,0,0,.76,1.1,25.39,25.39,0,0,1-8.69,49.21ZM104.22,8.3H97.61v2.34h6.61Zm0,15.94H97.61v2.34h6.61Zm0,15.94H97.61v2.34h6.61Zm0,15.94H97.61v2.34h6.61Zm0,15.94H97.61v2.34h6.61Zm0,15.94H97.61v2.34h6.61ZM125,112.12V57.62h-2.33v54.51a16.88,16.88,0,1,0,2.33,0Zm-1.17,31.48a14.6,14.6,0,0,1-1.17-29.14v.43H125v-.43a14.6,14.6,0,0,1-1.17,29.14Z" transform="translate(-96.17)"/></g></svg>