<svg id="c84cb445-7c94-4f85-9090-4314c8980fc9" data-name="Слой 1" xmlns="http://www.w3.org/2000/svg" viewBox="0 0 416 512"><defs><style>.\31 9a0bc9d-49a1-4614-94c5-50999d9f709f{fill:#6191a4;}</style></defs><title>glass-adv-1</title><path class="19a0bc9d-49a1-4614-94c5-50999d9f709f" d="M454.92,1.57a16,16,0,0,0-16.95,2C390.56,41.67,313.44,41.67,266,3.53a16,16,0,0,0-20.06,0C198.56,41.67,121.44,41.67,74,3.53A16,16,0,0,0,48,16V304c0,92.78,76.09,170.3,203.53,207.37a16.09,16.09,0,0,0,8.94,0C387.91,474.3,464,396.78,464,304V16A16,16,0,0,0,454.92,1.57ZM80,45.21C114,62.3,154,67.53,191.71,61L80,182.86ZM240,474.06C139,439.45,80,376.9,80,304V272H240ZM240,240H163.63L240,154.09Zm0-134.09L120.81,240H80v-9.77L240,55.68ZM272,272h45.21L272,324.74Zm0,101.92L359.36,272h51L272,423.51ZM432,304c0,72.91-59,135.46-160,170.07V470.9L432,295.73Zm0-64H272V44.92c49,24.78,111,25,160,.29Z" transform="translate(-48 0)"/></svg>