<svg id="8a7bc1e2-4182-4051-bbf7-a0b8a4cc03ec" data-name="Слой 1" xmlns="http://www.w3.org/2000/svg" viewBox="0 0 399.97 489.91"><defs><style>.\32 30beca5-2d3c-4f9e-87f5-6488e424c9de{fill:#6191a4;}</style></defs><title>glass-adv-3</title><path class="230beca5-2d3c-4f9e-87f5-6488e424c9de" d="M344.6,195.8c0-48.8-39.9-88.5-89.1-88.5s-89.1,39.7-89.1,88.5,39.9,88.5,89.1,88.5,89.1-39.6,89.1-88.5ZM255.5,265a68.2,68.2,0,1,1,68.6-68.2A68.37,68.37,0,0,1,255.5,265Z" transform="translate(-56.28 -5.5)"/><path class="230beca5-2d3c-4f9e-87f5-6488e424c9de" d="M454.1,438,375.3,302.1l47.5-10.3-17.9-55.9,43.6-39.5-43.6-39.5L422.8,101,365.1,88.5,352.5,31,296.2,48.8,256.5,5.5,216.7,48.9,160.5,31,147.9,88.3,90.2,100.8l17.9,55.9L64.5,196.2l43.6,39.5L90.2,291.6l46.1,10L57.9,437c-5.1,9.2,2.8,17.2,10.2,15.3l47.1-9.2,15.4,44.8c2.4,7.6,13.6,10.7,18.4,2l78.5-134.4,29,31.7,28.1-30.6L362,489.9c5.5,9.1,17.5,5.6,19.5-1l15.4-44.8,47.1,9.2c8.5,2.4,16.1-5.6,10.1-15.3ZM141.8,460.4l-11.3-31.5a9.72,9.72,0,0,0-9.2-7.1h-2l-33.8,6.1,64.9-112.1,10.1,45.9,47.2-14.9Zm81.3-140-47.3,15-10.6-48.2-48.5-10.5,15.1-47L95,196.3l36.7-33.2-15.1-47,48.5-10.5,10.6-48.2,47.3,15,33.4-36.5L290,72.3l47.3-15,10.6,48.2L396.4,116l-15.1,47L418,196.2l-36.7,33.2,15.1,47-48.5,10.5-10.6,48.2-47.3-15-33.4,36.5-33.5-36.2ZM391.7,421.8c-5.1,0-9.2,2-11.3,7.1l-11.3,31.5L302.8,345.9l49.7,15.7,9.5-43,63.5,109.2-33.8-6Z" transform="translate(-56.28 -5.5)"/></svg>