<svg id="6529bf7b-9ec0-46e8-a8bb-c571e46e9107" data-name="Capa 1" xmlns="http://www.w3.org/2000/svg" viewBox="0 0 189.47 169.48"><title>ico-teleg</title><path d="M152.53,179.48a7.5,7.5,0,0,1-4.21-1.29l-47.64-32.32L75.13,164.25a7.5,7.5,0,0,1-11.63-4.17L50.66,111.46,4.82,93.93a7.5,7.5,0,0,1-.09-14L179,10.59a7.5,7.5,0,0,1,2.47-.58,7.82,7.82,0,0,1,.91,0,7.48,7.48,0,0,1,4.8,2.13c.14.14.27.27.4.42a7.47,7.47,0,0,1,1.84,4.39,7.61,7.61,0,0,1,0,1.2,7.29,7.29,0,0,1-.12.85L159.9,173.38a7.5,7.5,0,0,1-7.37,6.1Zm-47.67-48.9,42.44,28.79L170.19,39.24,87.51,118.81l17.16,11.64Zm-35.33-6.4,5.68,21.53,12.24-8.81L71.43,126A7.48,7.48,0,0,1,69.54,124.18Zm-41.4-37.4,31.48,12a7.5,7.5,0,0,1,4.57,5.09l4,15.13a7.5,7.5,0,0,1,2.26-4.62L149.23,38.6Z" transform="translate(0 -10)" style="fill:#fff"/></svg>