<svg id="f4f3c54c-4249-4a5f-9500-fd11faeb603a" data-name="Capa 1" xmlns="http://www.w3.org/2000/svg" viewBox="0 0 215.8 226.98"><title>ico-viber</title><path d="M199.57,25.39C181.63,7.8,152.62-.72,113.34,0,73.73.83,47.26,7.78,30,21.93,13.35,35.6,5.59,55.62,5.59,84.92v29.9c0,34.58,18.53,72.6,54,78.36a7.5,7.5,0,0,0,2.4-14.81c-26.86-4.36-41.35-36-41.35-63.55V84.92c0-42,15.56-68.35,93-69.87,35.12-.7,60.48,6.4,75.43,21.06,11.65,11.43,17.32,27.4,17.32,48.81v29.9c0,45.27-20.32,65.24-72.44,71.12H97a7.5,7.5,0,0,0-5.3,2.2l-26,26a7.5,7.5,0,1,0,10.61,10.61l23.85-23.85h34.27a7.4,7.4,0,0,0,.83,0c29.83-3.31,50.25-11.08,64.28-24.43,14.75-14,21.92-34.21,21.92-61.65V84.92C221.39,59.62,214,39.59,199.57,25.39Z" transform="translate(-5.59 0)" style="fill:#fff"/><path d="M118.17,49h0a45.25,45.25,0,0,1,45.25,45.25,7.5,7.5,0,0,0,7.5,7.5h0a7.5,7.5,0,0,0,7.5-7.5A60.25,60.25,0,0,0,118.17,34h0a7.5,7.5,0,1,0,0,15Z" transform="translate(-5.59 0)" style="fill:#fff"/><path d="M118.17,75.36A18.9,18.9,0,0,1,137,94.24a7.5,7.5,0,1,0,15,0,33.92,33.92,0,0,0-33.88-33.88h0a7.5,7.5,0,0,0,0,15Z" transform="translate(-5.59 0)" style="fill:#fff"/><path d="M84.54,88.21A7.5,7.5,0,1,0,93,100.59c2.69-1.84,9-6.14,8.54-14.75-.28-5.15-4.93-12.51-8.78-17.77-5.63-7.7-10.48-12.34-14.39-13.78A16.62,16.62,0,0,0,67,54.21c-8,2.71-13.89,7.61-16.9,14.17-2.93,6.39-2.86,13.72.19,21.23a140.37,140.37,0,0,0,30.05,46.07,140.31,140.31,0,0,0,46,30A29.87,29.87,0,0,0,137.63,168a23.75,23.75,0,0,0,10-2.15c6.56-3,11.46-8.85,14.18-16.91a16.61,16.61,0,0,0-.08-11.32c-1.45-3.94-6.09-8.79-13.79-14.42-5.26-3.85-12.62-8.5-17.79-8.78-8.59-.43-12.89,5.86-14.73,8.54a7.5,7.5,0,0,0,12.38,8.47,11.83,11.83,0,0,1,1.55-2c4.21,1.35,16.21,10.17,18.38,13.55a2,2,0,0,1-.13,1.14c-.95,2.81-2.79,6.49-6.21,8.05-3.2,1.46-6.83.57-9.32-.44A125.31,125.31,0,0,1,91,125.07,125.34,125.34,0,0,1,64.21,84c-1-2.49-1.91-6.12-.45-9.32,1.57-3.42,5.24-5.26,8-6.21A2,2,0,0,1,73,68.29c3.38,2.17,12.2,14.16,13.55,18.37A12.13,12.13,0,0,1,84.54,88.21Z" transform="translate(-5.59 0)" style="fill:#fff"/></svg>