<svg id="15392aca-7726-4558-a278-25e4e25b6c7d" data-name="Capa 1" xmlns="http://www.w3.org/2000/svg" viewBox="0 0 486.11 447.41"><defs><style>.\35 7316ef5-d5ef-480c-bf55-643bd8ad19a7{fill:#fff;}</style></defs><title>steps-3</title><path class="57316ef5-d5ef-480c-bf55-643bd8ad19a7" d="M338.55,117.8a49.23,49.23,0,1,0-49.23-49.23A49.28,49.28,0,0,0,338.55,117.8Zm0-90a40.73,40.73,0,1,1-40.73,40.72A40.77,40.77,0,0,1,338.55,27.85Z" transform="translate(0 -19.35)"/><path class="57316ef5-d5ef-480c-bf55-643bd8ad19a7" d="M100.18,65.33H16.8A16.82,16.82,0,0,0,0,82.13V450a16.82,16.82,0,0,0,16.8,16.8h83.38A16.82,16.82,0,0,0,117,450V82.13A16.82,16.82,0,0,0,100.18,65.33ZM8.5,450V82.13a8.31,8.31,0,0,1,8.3-8.3H33.33V458.26H16.8A8.31,8.31,0,0,1,8.5,450Zm100,0a8.31,8.31,0,0,1-8.3,8.3H41.83V73.83h32V199.64a4.25,4.25,0,0,0,8.5,0V73.83h17.85a8.31,8.31,0,0,1,8.3,8.3V450Z" transform="translate(0 -19.35)"/><path class="57316ef5-d5ef-480c-bf55-643bd8ad19a7" d="M135.33,118a4.23,4.23,0,0,0,3-1.25L179.76,75.3a4.25,4.25,0,1,0-6-6l-41.43,41.43a4.25,4.25,0,0,0,3,7.26Z" transform="translate(0 -19.35)"/><path class="57316ef5-d5ef-480c-bf55-643bd8ad19a7" d="M133.49,91.35a4.25,4.25,0,0,0,5.67-2L168,29.1a4.25,4.25,0,0,0-7.67-3.67L131.5,85.68A4.25,4.25,0,0,0,133.49,91.35Z" transform="translate(0 -19.35)"/><path class="57316ef5-d5ef-480c-bf55-643bd8ad19a7" d="M138.34,140.16a4.25,4.25,0,0,0-6,6l41.43,41.43a4.25,4.25,0,0,0,6-6Z" transform="translate(0 -19.35)"/><path class="57316ef5-d5ef-480c-bf55-643bd8ad19a7" d="M139.16,167.54a4.25,4.25,0,0,0-7.67,3.67l28.87,60.26A4.25,4.25,0,0,0,168,227.8Z" transform="translate(0 -19.35)"/><path class="57316ef5-d5ef-480c-bf55-643bd8ad19a7" d="M205.27,229.38a13,13,0,0,0,26.07,0v-3.63l29.08,27.08a21.47,21.47,0,0,0,14.73,5.81h0a21.71,21.71,0,0,0,14.92-6v34.19l-77.73,1.57h-.08a31.43,31.43,0,0,0-30.78,32s0,.11,0,.17l2.2,108.88a31.61,31.61,0,0,0,31.43,30.81h.64a31.44,31.44,0,0,0,30.8-32.07L245,350.66l69.22-1.4v70.4a31.4,31.4,0,0,0,19.2,29,31.08,31.08,0,0,0,12.15,2.47H454.93a31.45,31.45,0,0,0-.27-62.89H377.12v-55A48.22,48.22,0,0,0,387,303.9V176.49a48.48,48.48,0,1,0-97,0v13.06l-16,17.08-31.4-29.31a21.48,21.48,0,0,0-11.32-5.6v-39a13,13,0,0,0-23.06-8.33h-71.7a4.25,4.25,0,0,0,0,8.5h68.68v96.49Zm13-101.2a4.54,4.54,0,0,1,4.54,4.54V172a21.72,21.72,0,0,0-9.07,4.62V132.71A4.54,4.54,0,0,1,218.31,128.18Zm4.54,101.2a4.54,4.54,0,0,1-9.07,0v-20l9.07,8.45Zm52.31,20.76h0a13,13,0,0,1-8.93-3.53l-47.37-44.1a13.08,13.08,0,1,1,18-19l34.52,32.22a4.25,4.25,0,0,0,6-.2l47.24-50.39a13.08,13.08,0,0,1,18.49-.52,13.1,13.1,0,0,1,.51,18.51L284.68,246A13,13,0,0,1,275.15,250.14Zm23.42-6.5L349.8,189a21.58,21.58,0,1,0-31.38-29.64l-19.84,21.17v-4a40,40,0,1,1,80,0V303.91a40,40,0,0,1-39.28,40,31.43,31.43,0,0,0-18-57.65l-22.69.46v-43Zm-58,98.61a4.25,4.25,0,0,0-4.16,4.33l1.65,81.78a22.93,22.93,0,0,1-22.25,23.39V364.64a4.25,4.25,0,0,0-8.5,0v85.74a23.09,23.09,0,0,1-15.13-21.1L190,320.36s0-.06,0-.09a22.93,22.93,0,0,1,22.45-23.36h0l109-2.2h.48a22.95,22.95,0,0,1,.45,45.89h-.1ZM454.86,442.61H345.64a22.93,22.93,0,0,1-22.91-23V349.72a48.35,48.35,0,0,0,45.89-7.83v50.58a4.25,4.25,0,0,0,4.25,4.25h81.8a22.94,22.94,0,0,1,22.94,22.95c0,.75,0,1.49-.11,2.22H408.06a4.25,4.25,0,0,0,0,8.5h66.88A23,23,0,0,1,454.86,442.61Z" transform="translate(0 -19.35)"/></svg>