<svg id="ead936e9-b176-425d-b244-458690e5519b" data-name="Capa 1" xmlns="http://www.w3.org/2000/svg" viewBox="0 0 491 395.33"><defs><style>.\30 4cb783f-fdc4-46f2-be33-bbf7c6d18386{fill:#fff;}</style></defs><title>steps-4</title><path class="04cb783f-fdc4-46f2-be33-bbf7c6d18386" d="M489.66,189.94l-45.2-85.17a11.48,11.48,0,0,0-7.11-5.69l-.05,0L249,48.23a11.52,11.52,0,0,0-6,0L53.72,99.06l-.06,0a11.48,11.48,0,0,0-7.12,5.7L1.34,189.94a11.5,11.5,0,0,0,5.24,15.79l39.33,18.59V340.67A11.5,11.5,0,0,0,52.42,351L241,442a11.41,11.41,0,0,0,9.92,0l.07,0,188.56-91a11.5,11.5,0,0,0,6.5-10.36V224.33c0-.15,0-.3,0-.45l38.41-18.16a11.5,11.5,0,0,0,5.24-15.79ZM246,71.24l150.59,40.65-151.05,56-151-56ZM62.14,124.44,230,186.67l-37,81.77L27.31,190.09Zm6.77,209V235.19l124.89,59a11.5,11.5,0,0,0,15.39-5.66l25.28-55.9V413.35Zm354.11,0-165.56,79.9V234.77l24.33,53.8a11.5,11.5,0,0,0,15.39,5.66L423,234.75v98.7Zm-125.09-65-37-81.77,167.89-62.22,34.84,65.64Z" transform="translate(0 -47.83)"/></svg>