<svg id="5159b081-c920-4675-9b46-b3075f878e06" data-name="Capa 1" xmlns="http://www.w3.org/2000/svg" viewBox="0 0 591.58 792"><defs><style>.\33 68e6239-4e3b-4b1d-b74f-4ed453a3b4e5{fill:#fff;}</style></defs><title>steps-1</title><path class="368e6239-4e3b-4b1d-b74f-4ed453a3b4e5" d="M680,680.71c-2.47-3.93-13.62-21.15-37.27-57.56-19.2-29.66-34.37-53.09-37.34-57.54-8.86-13.49-18.1-25.6-33.54-25.6-6.92,0-14.29,2.4-23,7.43-1.71.92-4.49,2.55-8.13,4.68l-3.5,2c-5.72.76-11.9,3.09-18.74,7-2,1.1-5.34,3.09-9.89,5.76-3.22,1.9-7,4.15-11.35,6.66-5.58,3.25-10.26,6-13.91,8.15-69.31-67.77-186-245.3-215.82-342.1l20.74-12.19c9.23-5.39,15.95-9.33,18.87-11.12a60,60,0,0,0,11.32-8.45c7-4.09,12.2-7.15,14.67-8.67,11.51-6.89,17.79-14,19.79-22.46,2.79-11.8-3.7-23.37-11.22-35.19-2.85-4.45-17.64-27.31-37.49-57.88-19.43-30.06-34.53-53.34-37.56-57.91C257.76,12.2,248.44,0,232.93,0c-6.92,0-14.28,2.39-23.1,7.48-2,1.15-5.71,3.31-10.57,6.19-5.48.89-11.34,3.17-17.77,6.88-2.47,1.37-7.25,4.18-13.75,8L160.23,33C148.51,39.83,142,43.7,139.11,45.47,132.8,49.22,128.21,53,124.93,57A16.45,16.45,0,0,0,122,58.49c-15.41,9.82-37.91,75-4.44,204.72,35.67,138.37,138,335.71,278.44,442C474.2,764.41,547,792,571.66,792c4.44,0,7.9-.81,10.23-2.29.39-.22.76-.45,1.13-.71,5.71-.76,11.94-3.11,18.87-7.11,3.34-1.88,10.88-6.32,21.21-12.4,4-2.38,7.65-4.49,10.74-6.3,4.9-2.87,8.53-5,10.45-6.18a54.15,54.15,0,0,0,13.78-11.09l.07,0c6.25-3.67,10.95-6.43,13.16-7.81,11.53-6.9,17.83-14,19.83-22.46C693.91,703.88,687.47,692.39,680,680.71Zm-5.42,31q-1.27,5.37-12.16,11.9c-2.28,1.42-6.84,4.1-12.92,7.67l-1.41.83a8.4,8.4,0,0,0-2.47,2.21q-2.92,3.87-10.2,8.24c-2,1.21-5.45,3.26-10.18,6l-10.8,6.33c-10.19,6-17.63,10.38-21,12.28-5.76,3.33-10.53,5.06-14.17,5.15a8.48,8.48,0,0,0-5.95,2.64,12.25,12.25,0,0,1-1.7.1c-19.3,0-87.62-24.46-165.41-83.37C269.07,587.85,169,394.6,134,259c-30.93-119.83-11.16-179.91-3-186.09A8.48,8.48,0,0,0,137.2,69q2.66-4.23,10.7-9c2.85-1.76,9.29-5.56,20.91-12.35l7.55-4.44c6.32-3.72,11-6.46,13.49-7.86,5.15-3,9.56-4.67,13.12-5a8.42,8.42,0,0,0,3.45-1.14c5.48-3.24,9.6-5.67,11.84-6.93,6-3.48,11-5.24,14.68-5.24,5.79,0,10.56,4.41,19.63,18.19,3,4.47,18.38,28.23,37.48,57.78,19.83,30.54,34.59,53.36,37.42,57.78,6.42,10.1,10.16,17.33,9,22.17-.85,3.59-4.89,7.56-12.08,11.88-2.61,1.6-8.1,4.82-15.4,9.1a8.59,8.59,0,0,0-1.82,1.43,42.44,42.44,0,0,1-8.75,6.59c-2.95,1.8-9.57,5.68-18.65,11l-23.09,13.58-1.2.63c-.73.37-1.44.74-2.14,1.15a8.47,8.47,0,0,0-4,9.62c28.23,101.44,153.86,292.29,227,360.71a8.48,8.48,0,0,0,10.13,1.09c3.77-2.25,10.37-6.14,19.32-11.35,4.34-2.53,8.18-4.79,11.41-6.7,4.4-2.58,7.66-4.5,9.65-5.62,5.42-3.12,10-4.84,13.62-5.07a8.43,8.43,0,0,0,3.71-1.14l5.11-3c3.42-2,6-3.53,7.84-4.51,6-3.5,11-5.27,14.7-5.27,5.73,0,10.44,4.36,19.4,18,2.94,4.4,18.08,27.78,37.25,57.4,16.66,25.64,34.1,52.51,37.16,57.39C672.07,699.76,675.77,706.91,674.63,711.69Z" transform="translate(-100.21)"/><path class="368e6239-4e3b-4b1d-b74f-4ed453a3b4e5" d="M161.83,85A8.47,8.47,0,0,0,145,83.25c-.63,6.07-15,150,42.47,258.69a8.48,8.48,0,0,0,15-7.92C147.41,229.93,161.68,86.46,161.83,85Z" transform="translate(-100.21)"/><path class="368e6239-4e3b-4b1d-b74f-4ed453a3b4e5" d="M569.31,729.75c-129.49-32.74-274-213.68-275.43-215.5a8.48,8.48,0,0,0-13.29,10.52,1042.35,1042.35,0,0,0,90.63,97.43c71.76,67.87,137,109.58,193.94,124a8.63,8.63,0,0,0,2.09.26,8.48,8.48,0,0,0,2.07-16.7Z" transform="translate(-100.21)"/></svg>