<svg id="676f7606-3aee-42dd-af18-ae204a979b45" data-name="Capa 1" xmlns="http://www.w3.org/2000/svg" viewBox="0 0 441.35 491.7"><defs><style>.\33 59e1cb3-4a96-4c99-b86f-86be6394453a{fill:#fff;}</style></defs><title>steps-2</title><path class="359e1cb3-4a96-4c99-b86f-86be6394453a" d="M436.71,0H149.47a29.85,29.85,0,0,0-29.81,29.81V96.53a130.31,130.31,0,0,0,0,250.58V461.88a29.85,29.85,0,0,0,29.81,29.81H384.2a10.5,10.5,0,0,0,7.42-3.08l71.82-71.82a10.5,10.5,0,0,0,3.08-7.42V29.81A29.85,29.85,0,0,0,436.71,0ZM149.47,21H436.71a8.82,8.82,0,0,1,8.81,8.81V61.5H140.66V29.81A8.82,8.82,0,0,1,149.47,21ZM46.17,221.81A109.29,109.29,0,1,1,155.46,331.1,109.41,109.41,0,0,1,46.17,221.81Zm94.49,240.07V351.26a130.08,130.08,0,0,0,113-43.91H318a10.5,10.5,0,0,0,0-21H268.61a129.35,129.35,0,0,0,16.64-53.24H318a10.5,10.5,0,0,0,0-21h-32.6a129.34,129.34,0,0,0-15.89-53.24H318a10.5,10.5,0,0,0,0-21H255a130.08,130.08,0,0,0-114.36-45.5V82.5H445.52V398.87h-42a29.84,29.84,0,0,0-29.81,29.81v42H149.47A8.82,8.82,0,0,1,140.66,461.88Zm254-6V428.68a8.82,8.82,0,0,1,8.81-8.81h27.16Z" transform="translate(-25.17)"/><path class="359e1cb3-4a96-4c99-b86f-86be6394453a" d="M359.25,158.87h34.87a10.5,10.5,0,0,0,0-21H359.25a10.5,10.5,0,0,0,0,21Z" transform="translate(-25.17)"/><path class="359e1cb3-4a96-4c99-b86f-86be6394453a" d="M359.25,233.11h34.87a10.5,10.5,0,0,0,0-21H359.25a10.5,10.5,0,0,0,0,21Z" transform="translate(-25.17)"/><path class="359e1cb3-4a96-4c99-b86f-86be6394453a" d="M359.25,307.35h34.87a10.5,10.5,0,0,0,0-21H359.25a10.5,10.5,0,0,0,0,21Z" transform="translate(-25.17)"/><path class="359e1cb3-4a96-4c99-b86f-86be6394453a" d="M394.12,381.59a10.5,10.5,0,0,0,0-21H295.89a10.5,10.5,0,0,0,0,21Z" transform="translate(-25.17)"/><path class="359e1cb3-4a96-4c99-b86f-86be6394453a" d="M237,168.85,224.17,156a18.27,18.27,0,0,0-25.83,0l-67.19,67.19-18.57-18.57a18.26,18.26,0,0,0-25.83,0L73.94,217.46a18.29,18.29,0,0,0,0,25.83l44.3,44.3a18.14,18.14,0,0,0,12.92,5.35h0a18.14,18.14,0,0,0,12.91-5.35L237,194.68A18.29,18.29,0,0,0,237,168.85Zm-105.83,102L90.72,230.38l8.94-8.94,24.06,24.06a10.5,10.5,0,0,0,14.85,0l72.68-72.68,8.94,8.94Z" transform="translate(-25.17)"/></svg>