<svg id="0794758c-b221-47e8-8d4e-a8032b4c8338" data-name="Слой 1" xmlns="http://www.w3.org/2000/svg" viewBox="0 0 307.78 77.61"><defs><style>.\36 b73a006-a633-4bd3-82f0-ec8683922b84{fill:#fff;}</style></defs><title>logo-footer</title><path class="6b73a006-a633-4bd3-82f0-ec8683922b84" d="M127.93,288.81,94.33,269.4V227.83l33.61,19.4,33.61-19.4V269.4ZM99.13,266.63l28.81,16.63,28.81-16.63V236.14l-28.81,16.63L99.13,236.14Z" transform="translate(-94.33 -211.19)"/><polygon class="6b73a006-a633-4bd3-82f0-ec8683922b84" points="16.87 15.21 33.61 5.54 50.34 15.21 59.95 15.21 33.61 0 7.27 15.21 7.27 15.21 16.87 15.21"/><polygon class="6b73a006-a633-4bd3-82f0-ec8683922b84" points="28.56 21.24 33.61 18.33 38.66 21.24 48.16 21.24 48.18 21.2 33.61 12.79 18.96 21.24 28.56 21.24"/><path class="6b73a006-a633-4bd3-82f0-ec8683922b84" d="M204.17,258a9.46,9.46,0,0,1-4.28,3,17.45,17.45,0,0,1-6.21,1,12.24,12.24,0,0,1-6.33-1.62,10.8,10.8,0,0,1-4.25-4.64,16.23,16.23,0,0,1-1.55-7v-2.23q0-6.45,3.09-10.07a10.7,10.7,0,0,1,8.61-3.62,11.32,11.32,0,0,1,7.54,2.35,10.15,10.15,0,0,1,3.36,6.77h-4.84q-.82-5.14-6-5.14a5.84,5.84,0,0,0-5,2.39q-1.73,2.39-1.79,7v2.19q0,4.61,1.94,7.15a6.41,6.41,0,0,0,5.4,2.55q3.79,0,5.39-1.72v-5.57h-5.86V247.1h10.78Z" transform="translate(-94.33 -211.19)"/><path class="6b73a006-a633-4bd3-82f0-ec8683922b84" d="M214.54,257.74h12.91v3.95H209.6V233.25h4.94Z" transform="translate(-94.33 -211.19)"/><path class="6b73a006-a633-4bd3-82f0-ec8683922b84" d="M247.53,255.07h-11l-2.3,6.62h-5.14l10.74-28.44h4.43L255,261.69h-5.16Zm-9.63-4h8.24L242,239.29Z" transform="translate(-94.33 -211.19)"/><path class="6b73a006-a633-4bd3-82f0-ec8683922b84" d="M273.1,254.37a3.43,3.43,0,0,0-1.32-2.89,15.89,15.89,0,0,0-4.76-2.05,23,23,0,0,1-5.47-2.3q-3.89-2.44-3.89-6.37a6.93,6.93,0,0,1,2.8-5.66,11.34,11.34,0,0,1,7.28-2.23A12.29,12.29,0,0,1,273,234a8.7,8.7,0,0,1,3.65,3.12,8,8,0,0,1,1.33,4.48H273.1a4.46,4.46,0,0,0-1.4-3.49,5.77,5.77,0,0,0-4-1.26,6,6,0,0,0-3.76,1,3.45,3.45,0,0,0-1.34,2.89,3.12,3.12,0,0,0,1.45,2.61,16.64,16.64,0,0,0,4.77,2,21.93,21.93,0,0,1,5.33,2.25,8.49,8.49,0,0,1,2.95,2.89,7.53,7.53,0,0,1,.94,3.82,6.77,6.77,0,0,1-2.72,5.65,11.82,11.82,0,0,1-7.39,2.1,13.89,13.89,0,0,1-5.67-1.14,9.53,9.53,0,0,1-4-3.15,7.86,7.86,0,0,1-1.44-4.69h4.94a4.6,4.6,0,0,0,1.6,3.75,7,7,0,0,0,4.59,1.33,6.1,6.1,0,0,0,3.88-1A3.37,3.37,0,0,0,273.1,254.37Z" transform="translate(-94.33 -211.19)"/><path class="6b73a006-a633-4bd3-82f0-ec8683922b84" d="M297.24,254.37a3.43,3.43,0,0,0-1.32-2.89,15.89,15.89,0,0,0-4.76-2.05,23,23,0,0,1-5.47-2.3q-3.89-2.44-3.89-6.37a6.93,6.93,0,0,1,2.8-5.66,11.34,11.34,0,0,1,7.28-2.23,12.29,12.29,0,0,1,5.29,1.09,8.69,8.69,0,0,1,3.65,3.12,8,8,0,0,1,1.33,4.48h-4.92a4.46,4.46,0,0,0-1.4-3.49,5.77,5.77,0,0,0-4-1.26,6,6,0,0,0-3.76,1,3.45,3.45,0,0,0-1.34,2.89,3.12,3.12,0,0,0,1.45,2.61,16.64,16.64,0,0,0,4.77,2,21.93,21.93,0,0,1,5.33,2.25,8.47,8.47,0,0,1,2.95,2.89,7.53,7.53,0,0,1,.94,3.82,6.77,6.77,0,0,1-2.72,5.65,11.82,11.82,0,0,1-7.39,2.1,13.89,13.89,0,0,1-5.67-1.14,9.53,9.53,0,0,1-4-3.15,7.86,7.86,0,0,1-1.44-4.69h4.94a4.6,4.6,0,0,0,1.6,3.75,7,7,0,0,0,4.59,1.33,6.1,6.1,0,0,0,3.88-1A3.37,3.37,0,0,0,297.24,254.37Z" transform="translate(-94.33 -211.19)"/><path class="6b73a006-a633-4bd3-82f0-ec8683922b84" d="M327.06,237.24h-8.87v24.45h-4.9V237.24H304.5v-4h22.56Z" transform="translate(-94.33 -211.19)"/><path class="6b73a006-a633-4bd3-82f0-ec8683922b84" d="M347.41,249H335.73v8.75h13.65v3.95H330.79V233.25h18.46v4H335.73v7.85h11.68Z" transform="translate(-94.33 -211.19)"/><path class="6b73a006-a633-4bd3-82f0-ec8683922b84" d="M375.11,252.43a10.27,10.27,0,0,1-3.36,7.1,11.45,11.45,0,0,1-7.79,2.55,11.09,11.09,0,0,1-6-1.61,10.57,10.57,0,0,1-4-4.58,16.53,16.53,0,0,1-1.46-6.89v-2.66a16.65,16.65,0,0,1,1.43-7.09,10.74,10.74,0,0,1,4.09-4.73,11.42,11.42,0,0,1,6.16-1.66,11,11,0,0,1,7.58,2.55,10.65,10.65,0,0,1,3.34,7.22h-4.92a7,7,0,0,0-1.79-4.42,5.91,5.91,0,0,0-4.21-1.36,5.77,5.77,0,0,0-5,2.36q-1.73,2.36-1.77,6.91v2.52q0,4.61,1.65,7A5.48,5.48,0,0,0,364,258.1a6.39,6.39,0,0,0,4.38-1.31,6.82,6.82,0,0,0,1.86-4.36Z" transform="translate(-94.33 -211.19)"/><path class="6b73a006-a633-4bd3-82f0-ec8683922b84" d="M402.1,261.69h-4.92V249.07H384.46v12.62h-4.94V233.25h4.94v11.84h12.71V233.25h4.92Z" transform="translate(-94.33 -211.19)"/></svg>